<svg xmlns="http://www.w3.org/2000/svg" width="2260" height="1300" viewBox="0 0 2260 1300">
<defs><marker id="arrow" markerWidth="10" markerHeight="10" refX="9" refY="5" orient="auto-start-reverse"><path d="M0 0L10 5L0 10z" fill="#64717C"/></marker></defs>
<rect width="100%" height="100%" fill="#FBF9F2"/><text x="40" y="52" font-family="Arial" font-size="29" font-weight="700" fill="#163A59">SkyCampus Enterprise · C4 nivel 2</text><text x="40" y="83" font-family="Arial" font-size="15" fill="#64717C">Contenedores, responsabilidades y protocolos · las personas y los sistemas externos son los mismos del nivel 1</text><rect x="330" y="120" width="1400" height="960" rx="20" fill="none" stroke="#1479B8" stroke-width="4" stroke-dasharray="10 6"/><text x="355" y="152" font-family="Arial" font-size="14" font-weight="700" fill="#1479B8">SKYCAMPUS ENTERPRISE · [Sistema de software en construcción]</text>
<path d="M290 305 L380 305" fill="none" stroke="#64717C" stroke-width="2" marker-end="url(#arrow)"/>
<path d="M290 595 L380 595" fill="none" stroke="#64717C" stroke-width="2" marker-end="url(#arrow)"/>
<path d="M660 295 L710 295 L710 420 L760 420" fill="none" stroke="#64717C" stroke-width="2" marker-end="url(#arrow)"/>
<path d="M660 585 L710 585 L710 480 L760 480" fill="none" stroke="#64717C" stroke-width="2" marker-end="url(#arrow)"/>
<path d="M1040 450 L1095 450 L1095 230 L1150 230" fill="none" stroke="#64717C" stroke-width="2" marker-end="url(#arrow)"/>
<path d="M1040 450 L1150 450" fill="none" stroke="#64717C" stroke-width="2" marker-end="url(#arrow)"/>
<path d="M1040 450 L1095 450 L1095 715 L1150 715" fill="none" stroke="#64717C" stroke-width="2" marker-end="url(#arrow)"/>
<path d="M1040 450 L1095 450 L1095 965 L1150 965" fill="none" stroke="#64717C" stroke-width="2" marker-end="url(#arrow)"/>
<path d="M1440 210 L1500 210" fill="none" stroke="#64717C" stroke-width="2" marker-end="url(#arrow)"/>
<path d="M1440 440 L1500 440" fill="none" stroke="#64717C" stroke-width="2" marker-end="url(#arrow)"/>
<path d="M1440 512 L1800 512" fill="none" stroke="#64717C" stroke-width="2" marker-end="url(#arrow)"/>
<path d="M1440 640 L1800 640" fill="none" stroke="#64717C" stroke-width="2" marker-end="url(#arrow)"/>
<path d="M1440 720 L1800 720" fill="none" stroke="#64717C" stroke-width="2" marker-end="url(#arrow)"/>
<path d="M1440 800 L1800 800" fill="none" stroke="#64717C" stroke-width="2" marker-end="url(#arrow)"/>
<path d="M1440 965 L1800 965" fill="none" stroke="#64717C" stroke-width="2" marker-end="url(#arrow)"/>
<path d="M900 520 L900 1130" fill="none" stroke="#64717C" stroke-width="2" stroke-dasharray="7 6" marker-end="url(#arrow)"/>
<circle cx="165" cy="232" r="17" fill="#EFF8ED" stroke="#47894A" stroke-width="3"/><rect x="40" y="250" width="250" height="74" rx="14" fill="#EFF8ED" stroke="#47894A" stroke-width="3"/><text x="165" y="277" text-anchor="middle" font-family="Arial" font-size="16" font-weight="700" fill="#47894A">Personal de sede</text><text x="165" y="297" text-anchor="middle" font-family="Arial" font-size="12" fill="#163A59">[Persona · sede]</text><text x="165" y="315" text-anchor="middle" font-family="Arial" font-size="11" fill="#64717C">Operadores, técnicos y coordinadores</text>
<circle cx="165" cy="522" r="17" fill="#EFF8ED" stroke="#47894A" stroke-width="3"/><rect x="40" y="540" width="250" height="74" rx="14" fill="#EFF8ED" stroke="#47894A" stroke-width="3"/><text x="165" y="567" text-anchor="middle" font-family="Arial" font-size="16" font-weight="700" fill="#47894A">Superadmin</text><text x="165" y="587" text-anchor="middle" font-family="Arial" font-size="12" fill="#163A59">[Persona · red]</text><text x="165" y="605" text-anchor="middle" font-family="Arial" font-size="11" fill="#64717C">Administra la red completa</text>
<rect x="380" y="230" width="280" height="130" rx="14" fill="#EAF5FB" stroke="#1479B8" stroke-width="3"/><text x="520.0" y="281.0" text-anchor="middle" font-family="Arial" font-size="16" font-weight="700" fill="#1479B8">App Web Operadores</text><text x="520.0" y="303.0" text-anchor="middle" font-family="Arial" font-size="12" fill="#163A59">[Contenedor · navegador]</text><text x="520.0" y="322.0" text-anchor="middle" font-family="Arial" font-size="11" fill="#64717C">Una instancia por sede</text>
<rect x="380" y="520" width="280" height="130" rx="14" fill="#EAF5FB" stroke="#1479B8" stroke-width="3"/><text x="520.0" y="571.0" text-anchor="middle" font-family="Arial" font-size="16" font-weight="700" fill="#1479B8">Panel Superadmin</text><text x="520.0" y="593.0" text-anchor="middle" font-family="Arial" font-size="12" fill="#163A59">[Contenedor · aplicación web]</text><text x="520.0" y="612.0" text-anchor="middle" font-family="Arial" font-size="11" fill="#64717C">Gestión de la red completa</text>
<rect x="760" y="380" width="280" height="140" rx="14" fill="#FFF5DE" stroke="#D49A25" stroke-width="3"/><text x="900.0" y="436.0" text-anchor="middle" font-family="Arial" font-size="16" font-weight="700" fill="#D49A25">API Gateway</text><text x="900.0" y="458.0" text-anchor="middle" font-family="Arial" font-size="12" fill="#163A59">[Contenedor · gateway]</text><text x="900.0" y="477.0" text-anchor="middle" font-family="Arial" font-size="11" fill="#64717C">Autenticación y enrutamiento</text>
<rect x="1150" y="165" width="290" height="130" rx="14" fill="#FFF5DE" stroke="#D49A25" stroke-width="3"/><text x="1295.0" y="216.0" text-anchor="middle" font-family="Arial" font-size="16" font-weight="700" fill="#D49A25">Servicio de Misiones</text><text x="1295.0" y="238.0" text-anchor="middle" font-family="Arial" font-size="12" fill="#163A59">[Contenedor · servicio REST]</text><text x="1295.0" y="257.0" text-anchor="middle" font-family="Arial" font-size="11" fill="#64717C">Ciclo de vida y asignación</text>
<rect x="1150" y="395" width="290" height="130" rx="14" fill="#FFF5DE" stroke="#D49A25" stroke-width="3"/><text x="1295.0" y="446.0" text-anchor="middle" font-family="Arial" font-size="16" font-weight="700" fill="#D49A25">Servicio de Flota</text><text x="1295.0" y="468.0" text-anchor="middle" font-family="Arial" font-size="12" fill="#163A59">[Contenedor · servicio REST]</text><text x="1295.0" y="487.0" text-anchor="middle" font-family="Arial" font-size="11" fill="#64717C">Estado y transferencia de drones</text>
<rect x="1150" y="600" width="290" height="230" rx="14" fill="#FFF5DE" stroke="#D49A25" stroke-width="3"/><text x="1295.0" y="701.0" text-anchor="middle" font-family="Arial" font-size="16" font-weight="700" fill="#D49A25">Servicio de Rutas</text><text x="1295.0" y="723.0" text-anchor="middle" font-family="Arial" font-size="12" fill="#163A59">[Contenedor · servicio]</text><text x="1295.0" y="742.0" text-anchor="middle" font-family="Arial" font-size="11" fill="#64717C">Multi-etapa, estaciones y espacio aéreo</text>
<rect x="1150" y="900" width="290" height="130" rx="14" fill="#FFF5DE" stroke="#D49A25" stroke-width="3"/><text x="1295.0" y="951.0" text-anchor="middle" font-family="Arial" font-size="16" font-weight="700" fill="#D49A25">Servicio de Analytics</text><text x="1295.0" y="973.0" text-anchor="middle" font-family="Arial" font-size="12" fill="#163A59">[Contenedor · servicio REST]</text><text x="1295.0" y="992.0" text-anchor="middle" font-family="Arial" font-size="11" fill="#64717C">Métricas por sede</text>
<ellipse cx="1595.0" cy="175" rx="95.0" ry="12" fill="#EAF5FB" stroke="#1479B8" stroke-width="3"/><path d="M1500 175 V245 A95.0 12 0 0 0 1690 245 V175" fill="#EAF5FB" stroke="#1479B8" stroke-width="3"/><ellipse cx="1595.0" cy="175" rx="95.0" ry="12" fill="#EAF5FB" stroke="#1479B8" stroke-width="3"/><text x="1595.0" y="211" text-anchor="middle" font-family="Arial" font-size="15" font-weight="700" fill="#1479B8">BD Misiones</text><text x="1595.0" y="231" text-anchor="middle" font-family="Arial" font-size="11" fill="#163A59">[Relacional] Misiones e historial</text>
<ellipse cx="1595.0" cy="405" rx="95.0" ry="12" fill="#EAF5FB" stroke="#1479B8" stroke-width="3"/><path d="M1500 405 V475 A95.0 12 0 0 0 1690 475 V405" fill="#EAF5FB" stroke="#1479B8" stroke-width="3"/><ellipse cx="1595.0" cy="405" rx="95.0" ry="12" fill="#EAF5FB" stroke="#1479B8" stroke-width="3"/><text x="1595.0" y="441" text-anchor="middle" font-family="Arial" font-size="15" font-weight="700" fill="#1479B8">BD Flota</text><text x="1595.0" y="461" text-anchor="middle" font-family="Arial" font-size="11" fill="#163A59">[Relacional] Drones y estaciones</text>
<rect x="1800" y="475" width="420" height="70" rx="14" fill="#FCEEEE" stroke="#C74747" stroke-width="3"/><text x="2010.0" y="496.0" text-anchor="middle" font-family="Arial" font-size="15" font-weight="700" fill="#C74747">Sistema de Alertas</text><text x="2010.0" y="518.0" text-anchor="middle" font-family="Arial" font-size="12" fill="#163A59">[Externo · existente]</text><text x="2010.0" y="537.0" text-anchor="middle" font-family="Arial" font-size="11" fill="#64717C">Avisos de FALLO al técnico</text>
<rect x="1800" y="605" width="420" height="70" rx="14" fill="#FCEEEE" stroke="#C74747" stroke-width="3"/><text x="2010.0" y="626.0" text-anchor="middle" font-family="Arial" font-size="15" font-weight="700" fill="#C74747">Control Aéreo ECI</text><text x="2010.0" y="648.0" text-anchor="middle" font-family="Arial" font-size="12" fill="#163A59">[Externo · existente]</text><text x="2010.0" y="667.0" text-anchor="middle" font-family="Arial" font-size="11" fill="#64717C">Rutas sobre el campus</text>
<rect x="1800" y="685" width="420" height="70" rx="14" fill="#FCEEEE" stroke="#C74747" stroke-width="3"/><text x="2010.0" y="706.0" text-anchor="middle" font-family="Arial" font-size="15" font-weight="700" fill="#C74747">API Meteorológica</text><text x="2010.0" y="728.0" text-anchor="middle" font-family="Arial" font-size="12" fill="#163A59">[Externo · existente]</text><text x="2010.0" y="747.0" text-anchor="middle" font-family="Arial" font-size="11" fill="#64717C">Viento y lluvia</text>
<rect x="1800" y="765" width="420" height="70" rx="14" fill="#FCEEEE" stroke="#C74747" stroke-width="3"/><text x="2010.0" y="786.0" text-anchor="middle" font-family="Arial" font-size="15" font-weight="700" fill="#C74747">Aerocivil</text><text x="2010.0" y="808.0" text-anchor="middle" font-family="Arial" font-size="12" fill="#163A59">[Externo · nuevo]</text><text x="2010.0" y="827.0" text-anchor="middle" font-family="Arial" font-size="11" fill="#64717C">Restricciones del espacio aéreo</text>
<rect x="1800" y="930" width="420" height="70" rx="14" fill="#FCEEEE" stroke="#C74747" stroke-width="3"/><text x="2010.0" y="951.0" text-anchor="middle" font-family="Arial" font-size="15" font-weight="700" fill="#C74747">Plataforma Analytics</text><text x="2010.0" y="973.0" text-anchor="middle" font-family="Arial" font-size="12" fill="#163A59">[Externo · nuevo]</text><text x="2010.0" y="992.0" text-anchor="middle" font-family="Arial" font-size="11" fill="#64717C">Analítica agregada</text>
<rect x="780" y="1130" width="240" height="80" rx="14" fill="#FCEEEE" stroke="#C74747" stroke-width="3"/><text x="900.0" y="1156.0" text-anchor="middle" font-family="Arial" font-size="15" font-weight="700" fill="#C74747">ERP universitario</text><text x="900.0" y="1178.0" text-anchor="middle" font-family="Arial" font-size="12" fill="#163A59">[Externo · nuevo · propuesto]</text><text x="900.0" y="1197.0" text-anchor="middle" font-family="Arial" font-size="11" fill="#64717C">Identidad y catálogos</text>
<text x="335" y="295" text-anchor="middle" font-family="Arial" font-size="11" fill="#163A59" stroke="#FBF9F2" stroke-width="5" paint-order="stroke">HTTPS</text>
<text x="335" y="585" text-anchor="middle" font-family="Arial" font-size="11" fill="#163A59" stroke="#FBF9F2" stroke-width="5" paint-order="stroke">HTTPS</text>
<text x="718" y="360" text-anchor="start" font-family="Arial" font-size="11" fill="#163A59" stroke="#FBF9F2" stroke-width="5" paint-order="stroke">HTTPS</text>
<text x="718" y="540" text-anchor="start" font-family="Arial" font-size="11" fill="#163A59" stroke="#FBF9F2" stroke-width="5" paint-order="stroke">HTTPS</text>
<text x="1100" y="220" text-anchor="start" font-family="Arial" font-size="11" fill="#163A59" stroke="#FBF9F2" stroke-width="5" paint-order="stroke">REST</text>
<text x="1100" y="442" text-anchor="start" font-family="Arial" font-size="11" fill="#163A59" stroke="#FBF9F2" stroke-width="5" paint-order="stroke">REST</text>
<text x="1100" y="705" text-anchor="start" font-family="Arial" font-size="11" fill="#163A59" stroke="#FBF9F2" stroke-width="5" paint-order="stroke">REST</text>
<text x="1100" y="955" text-anchor="start" font-family="Arial" font-size="11" fill="#163A59" stroke="#FBF9F2" stroke-width="5" paint-order="stroke">REST</text>
<text x="1470" y="200" text-anchor="middle" font-family="Arial" font-size="11" fill="#163A59" stroke="#FBF9F2" stroke-width="5" paint-order="stroke">JDBC</text>
<text x="1470" y="430" text-anchor="middle" font-family="Arial" font-size="11" fill="#163A59" stroke="#FBF9F2" stroke-width="5" paint-order="stroke">JDBC</text>
<text x="1620" y="533" text-anchor="middle" font-family="Arial" font-size="11" fill="#163A59" stroke="#FBF9F2" stroke-width="5" paint-order="stroke">REST · evento FALLO</text>
<text x="1620" y="630" text-anchor="middle" font-family="Arial" font-size="11" fill="#163A59" stroke="#FBF9F2" stroke-width="5" paint-order="stroke">HTTP · plan de vuelo local</text>
<text x="1620" y="710" text-anchor="middle" font-family="Arial" font-size="11" fill="#163A59" stroke="#FBF9F2" stroke-width="5" paint-order="stroke">HTTP · condiciones</text>
<text x="1620" y="790" text-anchor="middle" font-family="Arial" font-size="11" fill="#163A59" stroke="#FBF9F2" stroke-width="5" paint-order="stroke">HTTP · autorización inter-sede</text>
<text x="1620" y="955" text-anchor="middle" font-family="Arial" font-size="11" fill="#163A59" stroke="#FBF9F2" stroke-width="5" paint-order="stroke">REST · métricas agregadas</text>
<text x="912" y="1100" text-anchor="start" font-family="Arial" font-size="11" fill="#163A59" stroke="#FBF9F2" stroke-width="5" paint-order="stroke">REST · identidad y catálogos (propuesto)</text>
<rect x="40" y="1250" width="18" height="14" fill="#EFF8ED" stroke="#47894A" stroke-width="2"/><text x="65" y="1262" font-family="Arial" font-size="11" fill="#163A59">Persona</text><rect x="150" y="1250" width="18" height="14" fill="#EAF5FB" stroke="#1479B8" stroke-width="2"/><text x="175" y="1262" font-family="Arial" font-size="11" fill="#163A59">Aplicación / base de datos</text><rect x="360" y="1250" width="18" height="14" fill="#FFF5DE" stroke="#D49A25" stroke-width="2"/><text x="385" y="1262" font-family="Arial" font-size="11" fill="#163A59">Servicio</text><rect x="470" y="1250" width="18" height="14" fill="#FCEEEE" stroke="#C74747" stroke-width="2"/><text x="495" y="1262" font-family="Arial" font-size="11" fill="#163A59">Sistema externo</text><path d="M620 1257 L680 1257" fill="none" stroke="#64717C" stroke-width="2" marker-end="url(#arrow)"/><text x="690" y="1262" font-family="Arial" font-size="11" fill="#163A59">Llamada (protocolo en el rótulo)</text><path d="M900 1257 L960 1257" fill="none" stroke="#64717C" stroke-width="2" stroke-dasharray="7 6" marker-end="url(#arrow)"/><text x="970" y="1262" font-family="Arial" font-size="11" fill="#163A59">Integración propuesta: el enunciado no define el contrato del ERP</text></svg>